<svg width="127" height="74" viewBox="0 0 127 74" fill="none" xmlns="http://www.w3.org/2000/svg">
<path d="M126.48 71.4663C121.88 72.6365 119.035 71.5167 116.482 67.6831C110.752 59.0977 104.426 50.9058 98.3229 42.5626C97.536 41.4831 96.7188 40.4238 95.6999 39.0821C88.4765 48.8276 81.2632 58.109 74.4938 67.7638C72.0725 71.2141 69.5302 72.7173 65.0105 71.4965L92.1689 35.0467L66.887 2.12776C71.2352 1.28032 74.2415 1.71413 76.9049 5.6083C82.7865 14.2037 89.2735 22.3855 95.7402 31.0415C102.247 22.4158 108.654 14.2239 114.707 5.70919C117.138 2.25891 119.751 0.947398 124.119 2.21855C120.81 6.60707 117.572 10.925 114.313 15.2126C109.915 20.9933 105.597 26.8447 101.037 32.5043C99.4124 34.5221 99.6748 35.8336 101.128 37.7403C109.562 48.8276 117.895 60.0259 126.48 71.4663Z" fill="white"/>
<path d="M0.0302657 34.4414C0.756641 30.7994 1.24089 27.0868 2.24974 23.5155C8.30287 1.89572 33.1207 -7.09317 50.1703 6.30441C60.158 14.1634 62.6397 25.2406 62.1454 37.7302H5.85135C5.00392 60.1369 21.1355 73.6656 41.6959 66.765C48.9092 64.3438 53.1565 58.6942 55.2852 51.6322C56.3647 48.0911 58.1503 47.5363 61.4796 48.5451C59.7746 57.3827 55.9107 64.7675 47.8399 69.388C35.7336 76.3088 18.4519 74.0691 9.36216 64.4548C3.99506 58.8052 1.71505 51.7735 0.706198 44.1768C0.55487 42.9662 0.242125 41.7757 0 40.5752C0.0201771 38.5306 0.0302657 36.486 0.0302657 34.4414ZM5.95224 32.9382H56.8287C56.4958 16.736 46.4073 5.22494 32.6162 5.12405C17.4834 5.00299 6.60799 16.2416 5.95224 32.9382Z" fill="white"/>
</svg>
