<svg width="600" height="600" viewBox="0 0 600 600" fill="none" xmlns="http://www.w3.org/2000/svg">
<path d="M74 58C74 49.1635 81.1634 42 90 42H510C518.837 42 526 49.1634 526 58V542C526 550.837 518.837 558 510 558H90C81.1635 558 74 550.837 74 542V58Z" fill="white"/>
<path fill-rule="evenodd" clip-rule="evenodd" d="M69 58C69 46.402 78.402 37 90 37H510C521.598 37 531 46.402 531 58V542C531 553.598 521.598 563 510 563H90C78.402 563 69 553.598 69 542V58ZM90 47C83.9249 47 79 51.9249 79 58V542C79 548.075 83.9249 553 90 553H510C516.075 553 521 548.075 521 542V58C521 51.9249 516.075 47 510 47H90Z" fill="#05060F"/>
<path d="M397 346H202C199.791 346 198 347.642 198 349.667V364.333C198 366.358 199.791 368 202 368H397C399.209 368 401 366.358 401 364.333V349.667C401 347.642 399.209 346 397 346Z" fill="white"/>
<path fill-rule="evenodd" clip-rule="evenodd" d="M202 336H397C403.895 336 411 341.317 411 349.667V364.333C411 372.682 403.895 378 397 378H202C195.105 378 188 372.683 188 364.333V349.667C188 341.318 195.105 336 202 336ZM202 346H397C399.209 346 401 347.642 401 349.667V364.333C401 366.358 399.209 368 397 368H202C199.791 368 198 366.358 198 364.333V349.667C198 347.642 199.791 346 202 346Z" fill="#05060F"/>
<path d="M422 286H178C175.791 286 174 287.642 174 289.667V304.333C174 306.358 175.791 308 178 308H422C424.209 308 426 306.358 426 304.333V289.667C426 287.642 424.209 286 422 286Z" fill="white"/>
<path fill-rule="evenodd" clip-rule="evenodd" d="M178 276H422C428.895 276 436 281.318 436 289.667V304.333C436 312.682 428.895 318 422 318H178C171.105 318 164 312.682 164 304.333V289.667C164 281.318 171.105 276 178 276ZM178 286H422C424.209 286 426 287.642 426 289.667V304.333C426 306.358 424.209 308 422 308H178C175.791 308 174 306.358 174 304.333V289.667C174 287.642 175.791 286 178 286Z" fill="#05060F"/>
<path d="M227.442 240.76C224.802 240.76 222.576 240.347 220.762 239.52C218.949 238.667 217.576 237.52 216.642 236.08C215.709 234.613 215.242 232.933 215.242 231.04H221.602C221.602 231.787 221.802 232.48 222.202 233.12C222.629 233.76 223.269 234.28 224.122 234.68C224.976 235.053 226.082 235.24 227.442 235.24C228.669 235.24 229.696 235.08 230.522 234.76C231.349 234.44 231.976 234 232.402 233.44C232.829 232.853 233.042 232.187 233.042 231.44C233.042 230.507 232.642 229.773 231.842 229.24C231.042 228.68 229.749 228.32 227.962 228.16L225.762 227.96C222.856 227.72 220.536 226.813 218.802 225.24C217.069 223.667 216.202 221.587 216.202 219C216.202 217.133 216.642 215.52 217.522 214.16C218.429 212.8 219.682 211.76 221.282 211.04C222.882 210.293 224.776 209.92 226.962 209.92C229.256 209.92 231.216 210.32 232.842 211.12C234.496 211.893 235.762 213 236.642 214.44C237.522 215.853 237.962 217.52 237.962 219.44H231.562C231.562 218.72 231.389 218.067 231.042 217.48C230.696 216.867 230.176 216.373 229.482 216C228.816 215.627 227.976 215.44 226.962 215.44C226.002 215.44 225.189 215.6 224.522 215.92C223.882 216.24 223.402 216.68 223.082 217.24C222.762 217.773 222.602 218.36 222.602 219C222.602 219.827 222.896 220.547 223.482 221.16C224.069 221.773 225.029 222.133 226.362 222.24L228.602 222.44C230.736 222.627 232.616 223.093 234.242 223.84C235.869 224.56 237.136 225.56 238.042 226.84C238.976 228.093 239.442 229.627 239.442 231.44C239.442 233.307 238.949 234.947 237.962 236.36C237.002 237.747 235.629 238.827 233.842 239.6C232.056 240.373 229.922 240.76 227.442 240.76Z" fill="#05060F"/>
<path d="M251.002 240.68C248.469 240.68 246.522 239.867 245.162 238.24C243.802 236.587 243.122 234.107 243.122 230.8V218.08H249.522V231.12C249.522 232.293 249.855 233.227 250.522 233.92C251.189 234.613 252.082 234.96 253.202 234.96C254.349 234.96 255.282 234.6 256.002 233.88C256.722 233.16 257.082 232.187 257.082 230.96V218.08H263.482V240H258.402V230.76H258.842C258.842 232.973 258.549 234.827 257.962 236.32C257.402 237.787 256.562 238.88 255.442 239.6C254.322 240.32 252.935 240.68 251.282 240.68H251.002Z" fill="#05060F"/>
<path d="M279.223 240.76C277.33 240.76 275.676 240.453 274.263 239.84C272.876 239.2 271.716 238.347 270.783 237.28C269.85 236.213 269.156 235.013 268.703 233.68C268.25 232.32 268.023 230.92 268.023 229.48V228.72C268.023 227.227 268.263 225.8 268.743 224.44C269.223 223.053 269.93 221.827 270.863 220.76C271.796 219.693 272.956 218.853 274.343 218.24C275.756 217.627 277.37 217.32 279.183 217.32C281.156 217.32 282.903 217.707 284.423 218.48C285.943 219.227 287.156 220.28 288.063 221.64C288.97 223 289.476 224.56 289.583 226.32H283.303C283.196 225.333 282.796 224.507 282.103 223.84C281.436 223.147 280.463 222.8 279.183 222.8C278.116 222.8 277.223 223.067 276.503 223.6C275.81 224.133 275.29 224.867 274.943 225.8C274.596 226.733 274.423 227.84 274.423 229.12C274.423 230.293 274.583 231.36 274.903 232.32C275.223 233.253 275.73 233.987 276.423 234.52C277.143 235.027 278.076 235.28 279.223 235.28C280.076 235.28 280.796 235.133 281.383 234.84C281.996 234.52 282.476 234.093 282.823 233.56C283.196 233 283.423 232.36 283.503 231.64H289.743C289.663 233.453 289.156 235.053 288.223 236.44C287.29 237.8 286.05 238.867 284.503 239.64C282.956 240.387 281.196 240.76 279.223 240.76Z" fill="#05060F"/>
<path d="M303.676 240.76C301.783 240.76 300.13 240.453 298.716 239.84C297.33 239.2 296.17 238.347 295.236 237.28C294.303 236.213 293.61 235.013 293.156 233.68C292.703 232.32 292.476 230.92 292.476 229.48V228.72C292.476 227.227 292.716 225.8 293.196 224.44C293.676 223.053 294.383 221.827 295.316 220.76C296.25 219.693 297.41 218.853 298.796 218.24C300.21 217.627 301.823 217.32 303.636 217.32C305.61 217.32 307.356 217.707 308.876 218.48C310.396 219.227 311.61 220.28 312.516 221.64C313.423 223 313.93 224.56 314.036 226.32H307.756C307.65 225.333 307.25 224.507 306.556 223.84C305.89 223.147 304.916 222.8 303.636 222.8C302.57 222.8 301.676 223.067 300.956 223.6C300.263 224.133 299.743 224.867 299.396 225.8C299.05 226.733 298.876 227.84 298.876 229.12C298.876 230.293 299.036 231.36 299.356 232.32C299.676 233.253 300.183 233.987 300.876 234.52C301.596 235.027 302.53 235.28 303.676 235.28C304.53 235.28 305.25 235.133 305.836 234.84C306.45 234.52 306.93 234.093 307.276 233.56C307.65 233 307.876 232.36 307.956 231.64H314.196C314.116 233.453 313.61 235.053 312.676 236.44C311.743 237.8 310.503 238.867 308.956 239.64C307.41 240.387 305.65 240.76 303.676 240.76Z" fill="#05060F"/>
<path d="M328.329 240.76C326.463 240.76 324.809 240.44 323.369 239.8C321.956 239.16 320.769 238.307 319.809 237.24C318.876 236.147 318.156 234.933 317.649 233.6C317.169 232.24 316.929 230.853 316.929 229.44V228.64C316.929 227.173 317.169 225.773 317.649 224.44C318.156 223.08 318.876 221.867 319.809 220.8C320.743 219.733 321.903 218.893 323.289 218.28C324.703 217.64 326.303 217.32 328.089 217.32C330.436 217.32 332.409 217.853 334.009 218.92C335.636 219.96 336.876 221.333 337.729 223.04C338.583 224.72 339.009 226.56 339.009 228.56V230.72H319.609V227.08H335.129L333.049 228.76C333.049 227.453 332.863 226.333 332.489 225.4C332.116 224.467 331.556 223.76 330.809 223.28C330.089 222.773 329.183 222.52 328.089 222.52C326.969 222.52 326.023 222.773 325.249 223.28C324.476 223.787 323.889 224.533 323.489 225.52C323.089 226.48 322.889 227.667 322.889 229.08C322.889 230.387 323.076 231.533 323.449 232.52C323.823 233.48 324.409 234.227 325.209 234.76C326.009 235.293 327.049 235.56 328.329 235.56C329.503 235.56 330.463 235.333 331.209 234.88C331.956 234.427 332.463 233.867 332.729 233.2H338.609C338.289 234.667 337.663 235.973 336.729 237.12C335.796 238.267 334.623 239.16 333.209 239.8C331.796 240.44 330.169 240.76 328.329 240.76Z" fill="#05060F"/>
<path d="M351.57 240.68C348.45 240.68 346.01 240.04 344.25 238.76C342.49 237.48 341.557 235.68 341.45 233.36H347.13C347.237 234.053 347.65 234.68 348.37 235.24C349.117 235.773 350.224 236.04 351.69 236.04C352.81 236.04 353.73 235.853 354.45 235.48C355.197 235.08 355.57 234.52 355.57 233.8C355.57 233.16 355.29 232.653 354.73 232.28C354.17 231.88 353.17 231.6 351.73 231.44L350.01 231.28C347.37 231.013 345.384 230.28 344.05 229.08C342.744 227.88 342.09 226.347 342.09 224.48C342.09 222.933 342.477 221.64 343.25 220.6C344.024 219.56 345.09 218.773 346.45 218.24C347.837 217.707 349.41 217.44 351.17 217.44C353.997 217.44 356.277 218.067 358.01 219.32C359.744 220.547 360.65 222.333 360.73 224.68H355.05C354.944 223.96 354.57 223.36 353.93 222.88C353.29 222.373 352.344 222.12 351.09 222.12C350.104 222.12 349.317 222.307 348.73 222.68C348.144 223.053 347.85 223.56 347.85 224.2C347.85 224.813 348.104 225.28 348.61 225.6C349.117 225.92 349.944 226.147 351.09 226.28L352.81 226.44C355.504 226.733 357.597 227.48 359.09 228.68C360.584 229.88 361.33 231.493 361.33 233.52C361.33 234.987 360.93 236.267 360.13 237.36C359.33 238.427 358.197 239.253 356.73 239.84C355.264 240.4 353.544 240.68 351.57 240.68Z" fill="#05060F"/>
<path d="M373.797 240.68C370.677 240.68 368.237 240.04 366.477 238.76C364.717 237.48 363.784 235.68 363.677 233.36H369.357C369.464 234.053 369.877 234.68 370.597 235.24C371.344 235.773 372.45 236.04 373.917 236.04C375.037 236.04 375.957 235.853 376.677 235.48C377.424 235.08 377.797 234.52 377.797 233.8C377.797 233.16 377.517 232.653 376.957 232.28C376.397 231.88 375.397 231.6 373.957 231.44L372.237 231.28C369.597 231.013 367.61 230.28 366.277 229.08C364.97 227.88 364.317 226.347 364.317 224.48C364.317 222.933 364.704 221.64 365.477 220.6C366.25 219.56 367.317 218.773 368.677 218.24C370.064 217.707 371.637 217.44 373.397 217.44C376.224 217.44 378.504 218.067 380.237 219.32C381.97 220.547 382.877 222.333 382.957 224.68H377.277C377.17 223.96 376.797 223.36 376.157 222.88C375.517 222.373 374.57 222.12 373.317 222.12C372.33 222.12 371.544 222.307 370.957 222.68C370.37 223.053 370.077 223.56 370.077 224.2C370.077 224.813 370.33 225.28 370.837 225.6C371.344 225.92 372.17 226.147 373.317 226.28L375.037 226.44C377.73 226.733 379.824 227.48 381.317 228.68C382.81 229.88 383.557 231.493 383.557 233.52C383.557 234.987 383.157 236.267 382.357 237.36C381.557 238.427 380.424 239.253 378.957 239.84C377.49 240.4 375.77 240.68 373.797 240.68Z" fill="#05060F"/>
<circle cx="300" cy="137" r="47" fill="#7657FF"/>
<path fill-rule="evenodd" clip-rule="evenodd" d="M321.666 122.625C322.936 123.955 322.887 126.063 321.557 127.332L296.426 151.484C295.777 152.103 294.906 152.435 294.009 152.403C293.113 152.371 292.267 151.979 291.664 151.315L279.385 138.059C278.149 136.698 278.249 134.593 279.609 133.356C280.97 132.119 283.075 132.219 284.312 133.58L294.296 144.312L316.959 122.516C318.289 121.246 320.397 121.295 321.666 122.625Z" fill="white"/>
<path d="M174 437C174 430.373 179.373 425 186 425H414C420.627 425 426 430.373 426 437V483C426 489.627 420.627 495 414 495H186C179.373 495 174 489.627 174 483V437Z" fill="#12B823"/>
<path fill-rule="evenodd" clip-rule="evenodd" d="M169 437C169 427.611 176.611 420 186 420H414C423.389 420 431 427.611 431 437V483C431 492.389 423.389 500 414 500H186C176.611 500 169 492.389 169 483V437ZM186 430C182.134 430 179 433.134 179 437V483C179 486.866 182.134 490 186 490H414C417.866 490 421 486.866 421 483V437C421 433.134 417.866 430 414 430H186Z" fill="#05060F"/>
</svg>
